<?xml version="1.0" encoding="UTF-8"?>
<svg id="Layer_2" data-name="Layer 2" xmlns="http://www.w3.org/2000/svg" viewBox="0 0 563.68 160.71">
  <defs>
    <style>
      .cls-1 {
        fill: #000000;
      }
    </style>
  </defs>
  <g id="Layer_1-2" data-name="Layer 1">
    <g>
      <path class="cls-1" d="M171.65,81.15c-.43,44.24-37.14,79.56-81.38,79.56H1.68c-.93,0-1.68-.75-1.68-1.68v-32.43c0-.32.09-.64.27-.91L45.07,56.34c.15-.24.42-.38.71-.38h42.95c.67,0,1.07.74.71,1.3l-41.58,64.36c-.36.56.04,1.3.71,1.3h42.02c23.3,0,42.82-18.43,43.26-41.73.45-23.84-18.81-43.37-42.55-43.37h-32.8l-1.16-.75-.48.75H1.68c-.93,0-1.68-.75-1.68-1.68V1.68C0,.75.75,0,1.68,0h89.62c44.58,0,80.79,36.48,80.35,81.15Z"/>
      <g>
        <path class="cls-1" d="M275.62,43.91c8.4,7.89,12.61,19.14,12.61,33.73s-4.2,25.84-12.61,33.73c-8.41,7.89-20.42,11.84-36.03,11.84h-32.26V32.07h32.26c15.62,0,27.63,3.95,36.03,11.84ZM229.35,104.39h9.73c8.62,0,15.12-2.24,19.52-6.72,4.39-4.48,6.59-11.16,6.59-20.03s-2.2-15.55-6.59-20.03c-4.4-4.48-10.9-6.72-19.52-6.72h-9.73v53.5Z"/>
        <path class="cls-1" d="M335.33,108.87c1.96-1.45,3.11-3.33,3.46-5.63h21.63c-.94,4.1-2.86,7.83-5.76,11.2-2.9,3.37-6.64,6.02-11.2,7.94-4.57,1.92-9.66,2.88-15.3,2.88-7.08,0-13.16-1.49-18.24-4.48-5.08-2.99-8.94-7.12-11.58-12.42-2.65-5.29-3.97-11.35-3.97-18.18s1.32-12.31,3.97-17.47c2.64-5.16,6.51-9.22,11.58-12.16,5.08-2.94,11.07-4.42,17.98-4.42,7.59,0,14.08,1.86,19.46,5.57s9.22,8.81,11.52,15.3c.94,2.48,1.6,5.12,1.98,7.94.38,2.82.58,6.19.58,10.11h-46.21c.26,5.72,1.54,9.81,3.84,12.29,2.3,2.48,5.25,3.71,8.83,3.71,2.99,0,5.46-.72,7.42-2.18ZM319.72,73.23c-2.13,2.09-3.5,5.36-4.1,9.79h24.45c-.43-4.35-1.75-7.59-3.97-9.73-2.22-2.13-4.95-3.2-8.19-3.2s-6.06,1.05-8.19,3.14Z"/>
        <path class="cls-1" d="M392.16,106.7v.26h30.72v16.26h-56.83v-16.77l29.57-31.74v-.26h-28.42v-16.26h54.66v16.77l-29.7,31.74Z"/>
        <path class="cls-1" d="M466.47,137.35c-2.69,3.71-5.93,6.38-9.73,8-3.8,1.62-8.51,2.43-14.14,2.43-3.67,0-7.34-.38-11.01-1.15v-16.13c2.05.68,4.22,1.02,6.53,1.02,2.99,0,5.38-.75,7.17-2.24,1.79-1.49,2.69-3.56,2.69-6.21,0-1.19-.21-2.54-.64-4.03-.43-1.49-1.41-4.33-2.94-8.51l-19.07-52.35h22.91l6.27,21.76c2.73,10.07,4.91,19.12,6.53,27.14h.26c1.79-9.13,3.97-18.22,6.53-27.26l6.02-21.63h21.63l-21.63,63.87c-2.22,6.48-4.67,11.58-7.36,15.3Z"/>
        <path class="cls-1" d="M543.2,123.21v-8.06h-.26c-1.96,3.16-4.54,5.59-7.74,7.3s-6.64,2.56-10.3,2.56c-5.55,0-10.41-1.41-14.59-4.22-4.18-2.82-7.4-6.8-9.66-11.97-2.26-5.16-3.39-11.2-3.39-18.11s1.11-12.95,3.33-18.11c2.22-5.16,5.38-9.15,9.47-11.97,4.1-2.82,8.87-4.22,14.34-4.22,3.58,0,6.95.77,10.11,2.3,3.16,1.54,5.72,3.71,7.68,6.53h.26v-33.15h21.25v91.14h-20.48ZM522.85,77.45c-2.22,3.29-3.33,7.7-3.33,13.25s1.11,9.96,3.33,13.25c2.22,3.29,5.16,4.93,8.83,4.93s6.46-1.62,8.64-4.86c2.18-3.24,3.26-7.68,3.26-13.31s-1.09-10.07-3.26-13.31c-2.18-3.24-5.06-4.86-8.64-4.86s-6.61,1.64-8.83,4.93Z"/>
      </g>
    </g>
  </g>
</svg>